# xmcd
#
# Track frame offsets: 
#        150
#        9317
#        20502
#        32035
#        40510
#        51367
#        61462
#        73307
#        84847
#        94975
#        106817
#        119795
#        131665
#        145795
#        161492
#        174932
#        184790
#        196312
#        209410
#        223932
#        238005
#        253227
#        263062
#        280152
#        291070
#        300937
#        310087
#        323377
#        337362
#        350660
#        360650
#
# Disc length: 4981 seconds
#
# Revision: 0
# Processed by: cddbd v1.5.2PL0 Copyright (c) Steve Scherf et al.
# Submitted via: ExactAudioCopy v0.99pb4
#
DISCID=d413731f
DTITLE=Various Artist - Let Me Be Your Sidetrack CD 5
DYEAR=2008
DGENRE=Country
TTITLE0=Merle Haggard - Down The Old Road Home
TTITLE1=Hank Snow - Land Of My Boyhood Dreams
TTITLE2=Grandpa Jones - Lullaby Yodel
TTITLE3=Jerry Lee Lewis - Waiting For A Train
TTITLE4=The Fendermen - Blue Yodel #8 (Mule Skinner Blues)
TTITLE5=Hank Snow - Everybody Does It In Hawaii
TTITLE6=Jessie Clifton - Long Tall Mama Blues
TTITLE7=Elton Britt - (When It's) Peach Pickin' Time In Georgia
TTITLE8=Bob King - You And My Old Guitar
TTITLE9=Molly O'Day - (15) Years Ago
TTITLE10=Hank Snow - Home Call
TTITLE11=Jack Guthrie - When The Cactus Is In Bloom
TTITLE12=Marty Robbins - My Mother Was A Lady
TTITLE13=Jimmie Skinner - Moonlight And Skies
TTITLE14=Ernest Tubb - The Drunkard's Child
TTITLE15=Hank Snow - Southern Cannon Ball
TTITLE16=Gary Williams - In The Hills Of Tennessee
TTITLE17=Lefty Frizzell - I'm Lonely And Blue
TTITLE18=Merle Haggard - Train Whistle Blues
TTITLE19=Dolly Parton - Blue Yodel #8 (Mule Skinner Blues)
TTITLE20=Wilf Carter - Whisper Your Mother's Name
TTITLE21=Rick Nelson - Big Chief Buffalo Nickel (The Desert Blues)
TTITLE22=Gary Williams - My Time Ain't Long
TTITLE23=Claude King - Pistol Packing Papa
TTITLE24=Dick Curless - Waiting For A Train
TTITLE25=Jimmie Skinner - Somewhere Down Below The Mason Dixon Line
TTITLE26=Hank Snow - Blue Yodel #12 (Daybreak Blues)
TTITLE27=Ernest Tubb - Why Did You Give Me Your Love
TTITLE28=Eddie Noack - My Old Pal
TTITLE29=Grandpa Jones - Brakeman's Blues (Yodeling The Blues Away)
TTITLE30=Connie Francis and Hank Williams Jr. - Blue Yodel #8 (Mule Skin
TTITLE30=ner Blues)
EXTD=
EXTT0=
EXTT1=
EXTT2=
EXTT3=
EXTT4=
EXTT5=
EXTT6=
EXTT7=
EXTT8=
EXTT9=
EXTT10=
EXTT11=
EXTT12=
EXTT13=
EXTT14=
EXTT15=
EXTT16=
EXTT17=
EXTT18=
EXTT19=
EXTT20=
EXTT21=
EXTT22=
EXTT23=
EXTT24=
EXTT25=
EXTT26=
EXTT27=
EXTT28=
EXTT29=
EXTT30=
PLAYORDER=
